<svg xmlns="http://www.w3.org/2000/svg" viewBox="0 0 23 20"><path d="M4.258 0c.45 0 .842.31.944.738l.749 2.649h15.132a.972.972 0 0 1 .945 1.207L20.21 11.94a.97.97 0 0 1-.945.74H7.643a.97.97 0 0 1-.947-.748l.005.017L3.503 1.947H.973A.973.973 0 0 1 .973 0zM19.84 5.334H6.497l1.895 5.398h10.113zM8.857 13.699a2.72 2.72 0 0 1 2.715 2.717 2.72 2.72 0 0 1-2.715 2.716 2.72 2.72 0 0 1-2.716-2.716 2.72 2.72 0 0 1 2.716-2.717m0 1.491a1.225 1.225 0 1 0 0 2.45 1.225 1.225 0 0 0 0-2.45m9.044-1.491a2.72 2.72 0 0 1 2.715 2.717 2.72 2.72 0 0 1-2.715 2.716 2.72 2.72 0 0 1-2.715-2.716 2.72 2.72 0 0 1 2.715-2.717m0 1.491a1.225 1.225 0 1 0 0 2.45 1.225 1.225 0 0 0 0-2.45"/></svg>