<svg width="65" height="65" viewBox="0 0 32 32" xmlns="http://www.w3.org/2000/svg">
  <path d="M16 16C16 13.79 17.79 12 20 12C22.21 12 24 13.79 24 16C24 18.21 22.21 20 20 20C17.79 20 16 18.21 16 16Z" fill="#1ABCFE"/>
  <path d="M8 24C8 21.79 9.79 20 12 20H16V24C16 26.21 14.21 28 12 28C9.79 28 8 26.21 8 24Z" fill="#0ACF83"/>
  <path d="M16 4V12H20C22.21 12 24 10.21 24 8C24 5.79 22.21 4 20 4H16Z" fill="#FF7262"/>
  <path d="M8 8C8 10.21 9.79 12 12 12H16V4H12C9.79 4 8 5.79 8 8Z" fill="#F24E1E"/>
  <path d="M8 16C8 18.21 9.79 20 12 20H16V12H12C9.79 12 8 13.79 8 16Z" fill="#A259FF"/>
</svg>
