<svg xmlns="http://www.w3.org/2000/svg" width="72" height="65" fill="none" viewBox="0 0 72 65"><path fill="#fff" d="M.212 32.43c0 5.43 5.277 10.499 13.597 13.356-1.662 8.404-.298 15.178 4.256 17.817 4.682 2.713 11.656.835 18.276-4.979 6.453 5.58 12.974 7.776 17.525 5.128 4.677-2.72 6.1-9.953 4.392-18.62 8.665-2.878 13.512-7.201 13.512-12.703 0-5.304-5.286-9.893-13.494-12.732 1.838-9.024.281-15.634-4.462-18.382-4.573-2.65-11.17-.34-17.718 5.385C29.285.623 22.752-1.233 18.014 1.524c-4.568 2.657-5.872 9.554-4.205 18.114C5.77 22.454.212 27.146.212 32.429"/><path fill="#53C1DE" d="M56.538 22.517a42 42 0 0 0-2.046-.648q.174-.712.316-1.402c1.549-7.554.536-13.639-2.921-15.642-3.315-1.921-8.737.082-14.213 4.87q-.79.691-1.582 1.46a39 39 0 0 0-1.053-.978c-5.74-5.12-11.492-7.278-14.946-5.269-3.312 1.927-4.293 7.648-2.899 14.806q.203 1.037.47 2.115-1.223.349-2.352.744c-6.728 2.357-11.025 6.05-11.025 9.882 0 3.958 4.613 7.927 11.62 10.334q.832.285 1.719.54a42 42 0 0 0-.5 2.28c-1.328 7.034-.29 12.62 3.013 14.534 3.412 1.977 9.138-.056 14.714-4.953q.662-.582 1.326-1.228a42 42 0 0 0 1.718 1.575c5.401 4.67 10.736 6.556 14.036 4.636 3.409-1.983 4.516-7.983 3.078-15.283a36 36 0 0 0-.381-1.707q.604-.179 1.182-.37c7.285-2.426 12.025-6.347 12.025-10.358 0-3.845-4.435-7.564-11.299-9.938"/><path fill="#fff" d="M54.958 40.223q-.521.173-1.067.336c-.805-2.559-1.89-5.28-3.218-8.09 1.267-2.744 2.31-5.43 3.092-7.972q.977.284 1.89.599c5.88 2.034 9.468 5.042 9.468 7.36 0 2.468-3.875 5.672-10.165 7.767m-2.61 5.197c.636 3.228.727 6.146.305 8.428-.378 2.05-1.14 3.417-2.08 3.964-2.003 1.165-6.286-.35-10.905-4.343a39 39 0 0 1-1.598-1.464c1.79-1.968 3.58-4.256 5.327-6.797 3.072-.274 5.975-.721 8.607-1.333q.195.789.344 1.545M25.953 57.61c-1.957.695-3.515.715-4.457.17-2.005-1.163-2.838-5.647-1.702-11.663q.196-1.034.464-2.12c2.604.579 5.485.995 8.564 1.246 1.759 2.486 3.6 4.771 5.456 6.772q-.61.592-1.211 1.12c-2.466 2.166-4.937 3.703-7.114 4.476m-9.167-17.402c-3.099-1.064-5.658-2.448-7.412-3.957-1.576-1.356-2.372-2.703-2.372-3.796 0-2.325 3.45-5.29 9.204-7.307q1.049-.366 2.187-.691c.796 2.6 1.839 5.317 3.098 8.065-1.276 2.789-2.334 5.55-3.137 8.18q-.811-.235-1.568-.494m3.073-21.018c-1.195-6.133-.402-10.76 1.594-11.92 2.127-1.238 6.828.526 11.783 4.947q.475.424.954.884c-1.847 1.992-3.671 4.26-5.414 6.732-2.989.278-5.85.726-8.48 1.324a40 40 0 0 1-.437-1.967m27.412 6.802a87 87 0 0 0-1.932-3.194c2.028.258 3.97.6 5.795 1.018a59 59 0 0 1-2.034 5.499 95 95 0 0 0-1.829-3.323M36.093 15.05a58 58 0 0 1 3.74 4.536 80 80 0 0 0-7.512-.002 60 60 0 0 1 3.772-4.534m-11.25 10.96a81 81 0 0 0-1.795 3.302 61 61 0 0 1-2.02-5.526 61 61 0 0 1 5.762-.994 80 80 0 0 0-1.948 3.217m2.005 16.301a58 58 0 0 1-5.857-.946 62 62 0 0 1 2.06-5.638 81 81 0 0 0 3.797 6.584m9.32 7.74a61 61 0 0 1-3.824-4.598q1.826.073 3.718.073 1.945-.001 3.836-.086a58 58 0 0 1-3.73 4.611m12.959-14.42a58 58 0 0 1 2.134 5.618 57 57 0 0 1-5.929 1.015q.99-1.575 1.951-3.25a87 87 0 0 0 1.844-3.383m-4.195 2.021a90 90 0 0 1-3.05 4.943 81 81 0 0 1-5.819.205c-1.977 0-3.901-.062-5.754-.183a78 78 0 0 1-3.106-4.95 77 77 0 0 1-2.711-5.145 77 77 0 0 1 2.703-5.148 77 77 0 0 1 3.081-4.929 77 77 0 0 1 5.787-.218c1.968 0 3.908.075 5.798.22a82 82 0 0 1 3.062 4.912 90 90 0 0 1 2.74 5.124 82 82 0 0 1-2.731 5.169m5.6-30.463c2.128 1.233 2.956 6.207 1.619 12.728q-.13.625-.286 1.27c-2.637-.612-5.5-1.067-8.497-1.35-1.746-2.498-3.556-4.77-5.372-6.736q.733-.709 1.461-1.347c4.692-4.103 9.077-5.723 11.075-4.565"/><path fill="#53C1DE" d="M36.062 26.753c3.134 0 5.675 2.553 5.675 5.702s-2.54 5.703-5.675 5.703-5.675-2.553-5.675-5.703c0-3.149 2.541-5.702 5.675-5.702"/></svg>