<svg xmlns="http://www.w3.org/2000/svg" width="35" height="29" fill="none" viewBox="0 0 35 29"><g fill="#ffa501" clip-path="url(#a)"><path d="M26.1 19.9H7.9c-2.6 0-4.2-1.8-4.6-3.6C3 15.2.7 7.1 0 4.9c-.1-.3.1-.6.4-.6H30v2H2.5c.8 2.6 2.5 8.5 2.7 9.6.2.9 1.1 2 2.7 2h18.2z"/><path d="M24.6 24.8 23 23.7c.2-.3.4-.6.5-1 .5-1.5 4-13.9 5.5-19.2.5-2.1 2.3-3.5 4.5-3.5h1.2c.1 0 .3.2.3.3v1.3c0 .2-.2.4-.3.4h-1.2c-1.2 0-2.3.8-2.6 2-1.5 5.3-5 17.8-5.5 19.4-.2.5-.5 1-.8 1.4m-4.1.2H8.4v2h12.1z"/><path d="M6 29c-1.7 0-3-1.4-3-3 0-1.7 1.4-3 3-3 1.7 0 3 1.4 3 3s-1.3 3-3 3m0-4.1c-.6 0-1 .5-1 1 0 .6.5 1 1 1s1-.5 1-1-.4-1-1-1M22.6 29c-1.7 0-3-1.4-3-3 0-1.7 1.4-3 3-3 1.7 0 3 1.4 3 3 .1 1.6-1.3 3-3 3m0-4.1c-.6 0-1 .5-1 1 0 .6.5 1 1 1s1-.5 1-1c.1-.5-.4-1-1-1"/></g><defs><clipPath id="a"><path fill="#fff" d="M0 0h35v29H0z"/></clipPath></defs></svg>